<svg width="16" height="16" viewBox="0 0 16 16" fill="none" xmlns="http://www.w3.org/2000/svg">
<path d="M15.0002 7.99997C15.0006 8.13094 14.975 8.26069 14.9249 8.3817C14.8748 8.50271 14.8012 8.61259 14.7083 8.70497L8.70519 14.7087C8.51782 14.895 8.26437 14.9995 8.00019 14.9995C7.736 14.9995 7.48255 14.895 7.29519 14.7087L1.29519 8.70497C1.10894 8.51761 1.00439 8.26416 1.00439 7.99997C1.00439 7.73578 1.10894 7.48233 1.29519 7.29497L7.29831 1.29122C7.48567 1.10497 7.73913 1.00043 8.00331 1.00043C8.2675 1.00043 8.52095 1.10497 8.70831 1.29122L14.7114 7.29497C14.8037 7.38761 14.8767 7.4976 14.9263 7.6186C14.9759 7.7396 15.001 7.86922 15.0002 7.99997Z" fill="black"/>
</svg>
